<svg width="43" height="37" viewBox="0 0 43 37" fill="none" xmlns="http://www.w3.org/2000/svg">
<path d="M40.6911 18.8261C38.4735 16.0975 35.297 15.3779 31.9706 15.6477C30.2325 15.7977 28.5243 15.6477 26.9061 15.048C23.0103 13.6088 22.6807 9.95059 25.0781 7.46183C26.2768 6.20246 27.925 6.32241 29.5133 6.7422C30.8019 7.10202 31.9706 7.70172 33.0494 8.5413C34.7276 9.89062 36.6755 10.4303 38.6533 9.41086C40.6611 8.39137 41.8299 6.56228 41.3204 4.01356C40.781 1.22495 37.994 -0.364252 35.3269 0.265433C34.1283 0.535298 33.1993 1.28492 32.4501 2.21446C31.581 3.3239 30.5921 4.31341 29.2735 4.85314C27.7452 5.48282 26.2468 5.30292 24.7784 4.64325C23.6696 4.1335 22.8905 3.26393 21.9915 2.48432C20.9126 1.5248 19.8038 0.625253 18.3354 0.265433C16.2677 -0.274297 14.3498 0.0255533 12.4618 1.01506C9.70483 2.45434 8.29636 5.99257 8.92567 8.87113C9.43512 11.18 10.7537 12.8591 12.8814 13.9686C14.1999 14.6882 15.6084 14.8381 17.0468 14.8082C18.8149 14.8082 20.553 15.0181 22.1113 15.9476C24.0892 17.087 24.8683 18.8262 24.6885 21.0151C24.6885 21.3149 24.6286 21.6148 24.5687 21.9146C24.4788 22.4543 24.269 22.9341 23.9693 23.3539C23.2801 24.3134 22.381 25.123 21.2722 25.7527C19.8937 26.5323 18.3354 26.6822 16.7472 26.5623C15.2788 26.4423 13.8703 26.0525 12.5517 25.3929C11.7426 24.9731 10.9635 24.4933 10.1543 24.0136C8.32633 22.8741 6.34848 22.6642 4.34067 23.3839C3.65142 23.6537 3.08204 24.0136 2.39279 24.5233C-0.663887 26.9821 -0.72382 31.6298 1.82341 34.2085C3.95109 36.3674 7.12764 36.9071 9.76477 35.5578C11.1433 34.8681 11.9823 33.7587 12.7915 32.5293C14.9791 29.171 18.3954 27.192 22.7107 28.1515C23.0403 28.2115 23.37 28.3014 23.6996 28.4214C24.8384 28.7812 25.7973 29.5008 26.6064 30.3704C27.6853 31.5398 29.0338 32.4393 30.6221 32.9491C30.9217 33.039 31.2514 33.129 31.5511 33.189C34.0383 33.6387 36.3159 33.189 38.4436 31.8097C40.6911 30.3404 42.1295 28.2115 42.4892 25.6627C42.8488 23.174 42.3393 20.8651 40.6911 18.8261ZM34.1582 2.69422C35.4768 1.40487 37.5745 1.43485 38.8931 2.69422C40.1817 3.98358 40.1817 6.08253 38.8931 7.37188C37.5745 8.66124 35.4768 8.63125 34.1582 7.37188C32.8397 6.11251 32.8696 3.98358 34.1582 2.69422ZM20.0735 11.06C17.9758 13.099 14.5895 13.099 12.5218 11.03C10.454 8.96108 10.454 5.60276 12.5517 3.56378C14.6494 1.5248 18.0358 1.52481 20.1035 3.59377C22.1713 5.66274 22.1713 9.02105 20.0735 11.06ZM9.7348 33.219C7.75695 34.8681 4.79018 34.6282 3.112 32.6492C1.43383 30.6702 1.70353 27.7317 3.68138 26.0825C5.65923 24.4333 8.626 24.6732 10.3042 26.6522C11.9824 28.6312 11.7126 31.5698 9.7348 33.219ZM37.8442 29.2909C35.1471 31.6597 31.0116 31.4199 28.6143 28.7212C26.2169 26.0525 26.4866 21.9446 29.1836 19.5758C31.8807 17.207 36.0162 17.4468 38.4136 20.1455C40.811 22.8142 40.5413 26.9221 37.8442 29.2909Z" fill="#2274BC"/>
</svg>
