<svg width="183" height="37" viewBox="0 0 183 37" fill="none" xmlns="http://www.w3.org/2000/svg">
<path d="M52.7844 26.9333V10.0698H69.127V12.6767H55.3239V24.3265H69.151V26.9333H52.7844Z" fill="#0C0C0C"/>
<path d="M68.4989 17.2913H57.9023V20.0112H68.4989V17.2913Z" fill="#0C0C0C"/>
<path d="M80.8024 27.1686C74.5244 27.1686 71.8438 24.8766 71.8438 19.507V10.0668H74.5004V19.507C74.5004 23.2263 76.2344 24.6076 80.8926 24.6076C85.5507 24.6076 87.2877 23.2263 87.2877 19.507V10.0668H89.7821V19.507C89.7821 24.8766 87.0954 27.1686 80.8024 27.1686Z" fill="#0C0C0C"/>
<path d="M92.8716 26.9333V10.0698H95.4351V24.3265H108.457V26.9333H92.8716Z" fill="#0C0C0C"/>
<path d="M126.699 17.0957H116.102V19.8156H126.699V17.0957Z" fill="#0C0C0C"/>
<path d="M110.987 26.9333V10.0698H127.33V12.6767H113.527V24.3265H127.354V26.9333H110.987Z" fill="#0C0C0C"/>
<path d="M144.823 26.9333L141.68 22.1322H135.417V19.5865H142.296C144.52 19.5865 145.746 18.2815 145.746 15.9131C145.746 13.7341 144.619 12.6767 142.296 12.6767H132.841V26.9333H130.302V10.0698H142.296C145.977 10.0698 148.261 12.4047 148.261 16.1606C148.261 18.7613 147.092 20.7539 145.058 21.6249L144.658 21.796L147.967 26.9333H144.82H144.823Z" fill="#0C0C0C"/>
<path d="M173.839 26.9333L165.965 13.4773L158.139 26.9333H155.224L165.325 9.83142H166.801L176.94 26.9333H173.839Z" fill="#0C0C0C"/>
<path d="M182.049 10.0698H179.486V26.9333H182.049V10.0698Z" fill="#0C0C0C"/>
<path d="M40.7507 19.2081C38.5358 16.4393 35.3382 15.6936 32.0084 15.9626C30.2653 16.1032 28.5403 15.9626 26.9205 15.3605C23.0137 13.9058 22.6981 10.153 25.0843 7.63169C26.2984 6.35119 27.9483 6.46121 29.52 6.89823C30.8123 7.25884 31.9903 7.86089 33.0542 8.72882C34.7371 10.1071 36.6906 10.645 38.686 9.60286C40.6935 8.55462 41.8746 6.70569 41.3727 4.10802C40.8258 1.27198 38.0309 -0.369139 35.3622 0.275694C34.1601 0.566022 33.2435 1.29948 32.4802 2.27132C31.6057 3.38679 30.6169 4.40141 29.2856 4.95761C27.765 5.59328 26.2653 5.43131 24.7868 4.74369C23.6748 4.22721 22.8814 3.33789 22.0039 2.53108C20.934 1.55008 19.798 0.651593 18.3525 0.272638C16.2849 -0.271345 14.3525 0.0250956 12.4532 1.03666C9.67334 2.5158 8.26989 6.10976 8.90099 9.02832C9.40588 11.3662 10.7462 13.0807 12.8589 14.2389C14.1902 14.9693 15.5907 15.113 17.0452 15.0977C18.8303 15.0794 20.5493 15.3116 22.1331 16.2437C24.1196 17.4142 24.8859 19.1837 24.7206 21.4116C24.6966 21.7263 24.6575 22.032 24.6064 22.3284V22.3253C24.6064 22.3253 24.6064 22.3284 24.6064 22.3314C24.6064 22.3314 24.6064 22.3376 24.6064 22.3406C24.5163 22.8663 24.3089 23.3705 24.0054 23.8075C23.3262 24.7885 22.4216 25.6076 21.2977 26.2616C19.9213 27.0592 18.3495 27.212 16.7717 27.0775C15.3052 26.9522 13.8717 26.5672 12.5614 25.8887C11.744 25.4639 10.9566 24.9688 10.1722 24.4799C8.32699 23.3308 6.34653 23.0955 4.34503 23.8503C3.64481 24.1131 3.07381 24.489 2.38561 25.0086C-0.667728 27.5054 -0.727833 32.2546 1.82363 34.892C3.94834 37.0862 7.12789 37.6271 9.78153 36.2672C11.173 35.5551 12.0054 34.4335 12.8108 33.1836C15.0077 29.7761 18.4216 27.7529 22.7522 28.7156C23.0858 28.789 23.4103 28.8806 23.7319 28.9876C24.8589 29.3666 25.8356 30.0878 26.632 30.9741C27.6988 32.1629 29.0752 33.0828 30.647 33.6084C30.9535 33.7092 31.2661 33.7948 31.5906 33.8559C34.085 34.3235 36.366 33.8712 38.5057 32.441C40.7537 30.9404 42.1902 28.7767 42.5598 26.1852C42.9204 23.6364 42.4095 21.2954 40.7476 19.2142L40.7507 19.2081ZM34.2142 2.74807C35.5305 1.43701 37.6522 1.44923 38.9565 2.77251C40.2608 4.0958 40.2488 6.232 38.9325 7.54C37.6162 8.85106 35.4945 8.83884 34.1902 7.51556C32.8859 6.19227 32.8979 4.05607 34.2142 2.74807ZM20.0685 11.2837C17.9678 13.3771 14.5749 13.3588 12.4923 11.247C10.4096 9.13223 10.4277 5.72164 12.5313 3.62822C14.632 1.5348 18.0249 1.55314 20.1076 3.66489C22.1902 5.7797 22.1722 9.19029 20.0685 11.2837ZM9.69738 33.8804C7.69889 35.5643 4.72369 35.3015 3.04977 33.2936C1.37584 31.2858 1.6373 28.2908 3.63279 26.6069C5.63128 24.923 8.60648 25.1858 10.2804 27.1937C11.9543 29.2015 11.6929 32.1965 9.69738 33.8804ZM37.9107 29.883C35.1969 32.2973 31.0497 32.0406 28.6485 29.3115C26.2473 26.5794 26.5028 22.4109 29.2165 19.9966C31.9302 17.5823 36.0775 17.839 38.4787 20.5681C40.8799 23.3002 40.6244 27.4687 37.9107 29.883Z" fill="#2274BC"/>
</svg>
